<?xml version="1.0" encoding="UTF-8" standalone="no"?><!DOCTYPE svg PUBLIC "-//W3C//DTD SVG 1.1//EN" "http://www.w3.org/Graphics/SVG/1.1/DTD/svg11.dtd"><svg width="100%" height="100%" viewBox="0 0 876 220" version="1.1" xmlns="http://www.w3.org/2000/svg" xmlns:xlink="http://www.w3.org/1999/xlink" xml:space="preserve" xmlns:serif="http://www.serif.com/" style="fill-rule:evenodd;clip-rule:evenodd;stroke-linejoin:round;stroke-miterlimit:2;"><rect id="Medium-Logo" serif:id="Medium Logo" x="0" y="0" width="875.487" height="219.4" style="fill:none;"/><g><g><g><path d="M126.959,25.197l0,21.934l55.237,-0l-0,21.291l-55.237,0l0,24.176l60.998,0l0,21.295l-84.694,0l0,-109.988l84.694,0l0,21.292l-60.998,0Z" style="fill-rule:nonzero;"/><path d="M203.618,3.905l23.534,-0l52.995,71.082l-0,-71.082l23.696,-0l-0,109.987l-23.696,0l-52.995,-71.085l0,71.085l-23.534,0l0,-109.987Z" style="fill-rule:nonzero;"/><path d="M519.59,3.905l-0,109.987l-23.532,0l0,-45.467l-50.11,-0l-0,45.467l-23.538,0l0,-109.987l23.538,-0l-0,43.225l50.11,-0l0,-43.225l23.532,-0Z" style="fill-rule:nonzero;"/><path d="M603.611,76.589l-16.328,-40.186l-16.33,40.186l32.658,-0Zm8.169,20.012l-48.993,-0l-7.044,17.29l-26.415,-0l44.826,-109.985l26.418,0l44.829,109.985l-26.58,-0l-7.041,-17.29Z" style="fill-rule:nonzero;"/><path d="M678.672,56.576l23.369,-0c11.693,-0 19.694,-6.085 19.694,-15.528c-0,-9.448 -8.001,-15.53 -19.694,-15.53l-23.369,-0l-0,31.058Zm42.58,57.317l-25.135,-35.704l-17.445,-0l-0,35.704l-23.538,0l0,-109.988l49.47,0c23.855,0 41.465,15.369 41.465,37.143c0,16.328 -9.928,29.137 -24.972,34.422l27.053,38.423l-26.898,0Z" style="fill-rule:nonzero;"/><path d="M829.147,76.589l-16.328,-40.186l-16.331,40.186l32.659,-0Zm8.172,20.012l-48.993,-0l-7.045,17.29l-26.414,-0l44.826,-109.985l26.415,0l44.829,109.985l-26.577,-0l-7.041,-17.29Z" style="fill-rule:nonzero;"/><g><g><path d="M3.241,113.893l0,-75.12l84.049,-0c-7.76,13.405 -22.235,22.45 -38.812,22.52l-0.195,0.001l-22.521,-0l0,52.599l-22.521,0Z"/></g><g><path d="M48.283,1.719c16.659,0 31.217,9.063 39.007,22.521l-84.049,0l0,-22.521l45.042,0Z"/></g></g><g><rect x="347.049" y="41.02" width="21.847" height="72.872"/></g></g><g><path d="M372.197,26.922l-45.042,0l-0,-22.521l84.049,0c-7.76,13.406 -22.235,22.45 -38.812,22.521l-0.195,0Z"/></g></g><g><path d="M122.394,158.614l-0,-11.497l-51.36,-0l-0,69.353l51.36,-0l-0,-11.498l-38.952,-0l0,-18.086l35.275,-0l0,-11.498l-35.275,-0l0,-16.774l38.952,0Z" style="fill:#595959;fill-rule:nonzero;"/><path d="M177.542,217.681c10.037,0 19.178,-4.337 25.737,-11.296l-8.745,-8.281c-4.273,4.949 -10.334,8.079 -16.992,8.079c-12.619,0 -23.251,-11.109 -23.251,-24.44c-0,-13.231 10.632,-24.34 23.251,-24.34c6.559,-0 12.719,3.131 16.893,8.079l8.844,-8.382c-6.559,-6.858 -15.7,-11.195 -25.737,-11.195c-19.475,-0 -35.859,16.345 -35.859,35.838c0,19.492 16.384,35.938 35.859,35.938Z" style="fill:#595959;fill-rule:nonzero;"/><path d="M269.271,147.117l-0,28.271l-34.096,-0l0,-28.271l-12.408,-0l-0,69.353l12.408,-0l0,-29.584l34.096,-0l-0,29.584l12.408,-0l-0,-69.353l-12.408,-0Z" style="fill:#595959;fill-rule:nonzero;"/><path d="M306.632,216.47l12.409,-0l-0,-48.759l36.083,48.759l12.309,-0l-0,-69.353l-12.309,-0l-0,48.759l-36.083,-48.759l-12.409,-0l0,69.353Z" style="fill:#595959;fill-rule:nonzero;"/><path d="M421.538,217.681c19.381,0 35.765,-16.446 35.765,-35.938c0,-19.493 -16.384,-35.838 -35.765,-35.838c-19.482,-0 -35.866,16.345 -35.866,35.838c0,19.492 16.384,35.938 35.866,35.938Zm-0,-11.498c-12.623,0 -23.259,-11.109 -23.259,-24.44c0,-13.231 10.636,-24.34 23.259,-24.34c12.523,-0 23.059,11.109 23.059,24.34c-0,13.331 -10.536,24.44 -23.059,24.44Z" style="fill:#595959;fill-rule:nonzero;"/><path d="M490.392,204.972l0,-57.855l-12.309,-0l0,69.353l47.386,-0l-0,-11.498l-35.077,-0Z" style="fill:#595959;fill-rule:nonzero;"/><path d="M570.475,217.681c19.382,0 35.766,-16.446 35.766,-35.938c0,-19.493 -16.384,-35.838 -35.766,-35.838c-19.481,-0 -35.865,16.345 -35.865,35.838c-0,19.492 16.384,35.938 35.865,35.938Zm0,-11.498c-12.623,0 -23.258,-11.109 -23.258,-24.44c0,-13.231 10.635,-24.34 23.258,-24.34c12.524,-0 23.059,11.109 23.059,24.34c0,13.331 -10.535,24.44 -23.059,24.44Z" style="fill:#595959;fill-rule:nonzero;"/><path d="M659.111,188.602l16.997,0l0,12.63c-4.274,3.133 -9.84,4.951 -15.009,4.951c-12.723,0 -23.458,-11.114 -23.458,-24.438c-0,-13.229 10.735,-24.342 23.458,-24.342c6.66,-0 14.015,3.031 18.285,8.082l8.835,-8.385c-6.552,-6.959 -17.18,-11.195 -27.12,-11.195c-19.582,-0 -36.065,16.347 -36.065,35.84c-0,19.487 16.483,35.936 36.065,35.936c9.94,0 20.568,-4.337 27.12,-11.296l-0,-28.069l-29.108,-0l0,10.286Z" style="fill:#595959;fill-rule:nonzero;"/><rect x="711.582" y="147.117" width="12.309" height="69.353" style="fill:#595959;fill-rule:nonzero;"/><path d="M799.51,158.614l-0,-11.497l-51.361,-0l0,69.353l51.361,-0l-0,-11.498l-38.952,-0l-0,-18.086l35.275,-0l-0,-11.498l-35.275,-0l-0,-16.774l38.952,0Z" style="fill:#595959;fill-rule:nonzero;"/><path d="M846.616,217.58c16.299,0 25.63,-8.774 25.63,-21.193c0,-12.624 -9.53,-17.27 -23.741,-20.502c-10.836,-2.525 -15.906,-4.545 -15.906,-10.2c-0,-4.848 4.672,-9.09 11.532,-9.09c6.76,-0 13.619,2.929 19.578,8.181l6.75,-9.29c-6.849,-5.951 -14.995,-9.682 -25.831,-9.682c-14.412,-0 -24.537,8.875 -24.537,20.992c-0,13.028 9.827,17.169 23.94,20.501c10.936,2.626 15.807,4.545 15.807,10.302c-0,4.948 -4.374,9.19 -12.824,9.19c-8.948,0 -16.202,-3.636 -22.456,-9.392l-7.15,8.988c7.547,7.161 17.477,11.195 29.208,11.195Z" style="fill:#595959;fill-rule:nonzero;"/><g><g><rect x="16.233" y="170.367" width="13.871" height="46.269" style="fill:#595959;"/></g><g><path d="M32.2,161.416l-28.598,-0l-0,-14.299l53.365,-0c-4.927,8.511 -14.118,14.254 -24.643,14.299l-0.124,-0Z" style="fill:#595959;"/></g></g></g></g></svg>